<svg width="22" height="22" viewBox="0 0 22 22" fill="none" xmlns="http://www.w3.org/2000/svg">
<path d="M2.67996 0.0800171C1.24476 0.0800171 0.0799561 1.24482 0.0799561 2.68002V19.32C0.0799561 20.7552 1.24476 21.92 2.67996 21.92H19.32C20.7552 21.92 21.92 20.7552 21.92 19.32V2.68002C21.92 1.24482 20.7552 0.0800171 19.32 0.0800171H2.67996ZM4.23996 7.36002H7.7398C8.1194 7.36002 10.1732 7.33418 10.1732 9.21658C10.1732 10.215 9.49183 10.5527 9.18503 10.7035C9.64263 10.8491 10.48 11.2704 10.48 12.56C10.48 14.5516 8.19691 14.64 7.89011 14.64H4.23996V7.36002ZM13.08 7.36002H16.72V8.40002H13.08V7.36002ZM5.79996 8.62345V10.3297H7.47472C7.70352 10.3297 8.46191 10.2044 8.46191 9.44002C8.46191 8.67562 7.47419 8.62345 7.32339 8.62345H5.79996ZM15.0198 8.92002C17.0478 8.92002 17.5986 10.5007 17.6818 10.8751C17.7598 11.2547 17.76 11.5876 17.76 12.04H13.6518C13.6518 12.4924 13.8915 13.5117 15.1031 13.5117C15.4255 13.5117 15.6641 13.4339 15.9085 13.2831C16.1477 13.1323 16.2316 12.9861 16.3096 12.8353H17.6767C17.4375 13.4333 17.1152 13.8865 16.6316 14.1881C16.148 14.4897 15.5864 14.64 14.9416 14.64C14.536 14.64 14.1356 14.5623 13.73 14.4115C13.4076 14.2607 13.0856 14.0369 12.8464 13.8133C12.6072 13.5845 12.4459 13.2828 12.2847 12.9084C12.1235 12.6068 12.04 12.1544 12.04 11.78C12.04 11.4056 12.191 8.92002 15.0198 8.92002ZM15.0198 9.97525C13.8446 9.97525 13.6518 11.1039 13.6518 11.1767H16.2314C16.1482 10.8023 15.8102 9.97525 15.0198 9.97525ZM5.79996 11.3697V13.3766H7.54277C7.69305 13.3766 8.75339 13.3301 8.75339 12.4097C8.75339 11.4945 7.92029 11.3697 7.54277 11.3697H5.79996Z" fill="#CDD9E5"/>
</svg>
