<svg width="20" height="20" viewBox="0 0 20 20" fill="none" xmlns="http://www.w3.org/2000/svg">
<path d="M9.91016 0C0.719156 0 0 0.719656 0 9.91016V10.0898C0 19.2803 0.719157 20 9.91016 20H10.0898C19.2808 20 20 19.2803 20 10.0898V10C20 0.726 19.274 0 10 0H9.91016ZM15.9971 3C16.5496 2.9985 16.9985 3.44457 17 3.99707C17.0015 4.54957 16.5554 4.9985 16.0029 5C15.4504 5.0015 15.0015 4.55543 15 4.00293C14.9985 3.45043 15.4446 3.0015 15.9971 3ZM9.98828 5C12.7493 4.9935 14.9935 7.22728 15 9.98828C15.0065 12.7493 12.7727 14.9935 10.0117 15C7.25072 15.0065 5.0065 12.7727 5 10.0117C4.9935 7.25072 7.22728 5.0065 9.98828 5ZM9.99316 7C8.33616 7.004 6.996 8.35081 7 10.0078C7.004 11.6643 8.35034 13.004 10.0068 13C11.6638 12.996 13.004 11.6497 13 9.99316C12.996 8.33616 11.6497 6.996 9.99316 7Z" fill="#CDD9E6"/>
</svg>
