<svg width="21" height="21" viewBox="0 0 21 21" fill="none" xmlns="http://www.w3.org/2000/svg">
<path d="M19.0909 0H1.90909C0.854318 0 0 0.854318 0 1.90909V19.0909C0 20.1457 0.854318 21 1.90909 21H19.0909C20.1457 21 21 20.1457 21 19.0909V1.90909C21 0.854318 20.1457 0 19.0909 0ZM6.63791 17.1818H3.822V8.12127H6.63791V17.1818ZM5.20132 6.82595C4.29355 6.82595 3.5595 6.09 3.5595 5.18414C3.5595 4.27827 4.2945 3.54327 5.20132 3.54327C6.10623 3.54327 6.84218 4.27923 6.84218 5.18414C6.84218 6.09 6.10623 6.82595 5.20132 6.82595ZM17.1856 17.1818H14.3716V12.7756C14.3716 11.7247 14.3525 10.373 12.9083 10.373C11.4431 10.373 11.2178 11.5175 11.2178 12.6993V17.1818H8.40382V8.12127H11.1052V9.35932H11.1434C11.5195 8.64723 12.4377 7.896 13.8075 7.896C16.6587 7.896 17.1856 9.77264 17.1856 12.2125V17.1818V17.1818Z" fill="#CDD9E6"/>
</svg>
