<svg width="24" height="23" viewBox="0 0 24 23" fill="none" xmlns="http://www.w3.org/2000/svg">
<ellipse cx="11.8252" cy="11.5" rx="11.6117" ry="11.5" fill="#6687B1"/>
<path d="M11.1116 8.65625C10.7834 8.85417 10.4475 8.98698 10.1038 9.05469C9.76522 9.1224 9.53866 9.15625 9.42407 9.15625C9.30949 9.15625 9.22095 9.14323 9.15845 9.11719C9.10116 9.09115 9.05168 9.05729 9.01001 9.01562C8.95793 8.94792 8.90584 8.82552 8.85376 8.64844C8.80688 8.46615 8.78345 8.3099 8.78345 8.17969C8.78345 8.04427 8.82511 7.9375 8.90845 7.85938C8.99699 7.77604 9.15584 7.71094 9.38501 7.66406C10.0621 7.52344 10.5256 7.38542 10.7756 7.25C11.0256 7.10938 11.2079 6.9974 11.3225 6.91406C11.4423 6.83073 11.5517 6.75781 11.6506 6.69531C11.8642 6.5651 12.0803 6.5 12.2991 6.5C12.5178 6.5 12.6923 6.56771 12.8225 6.70312C12.9579 6.83854 13.0256 7.03125 13.0256 7.28125V15.5078C13.0256 15.6432 12.984 15.7604 12.9006 15.8594C12.8173 15.9531 12.7183 16 12.6038 16H11.5178C11.398 16 11.2991 15.9531 11.2209 15.8594C11.148 15.7604 11.1116 15.6432 11.1116 15.5078V8.65625Z" fill="white"/>
</svg>
