<svg width="26" height="19" viewBox="0 0 26 19" fill="none" xmlns="http://www.w3.org/2000/svg">
<path d="M25.2742 3.26562C25.0339 1.95984 23.8887 1.00891 22.5597 0.712036C20.571 0.296875 16.8903 0 12.9081 0C8.92822 0 5.18869 0.296875 3.19757 0.712036C1.87094 1.00891 0.723401 1.89954 0.483052 3.26562C0.240348 4.75 0 6.82812 0 9.5C0 12.1719 0.240348 14.25 0.541961 15.7344C0.784665 17.0402 1.92985 17.9911 3.25648 18.288C5.36777 18.7031 8.98713 19 12.9694 19C16.9516 19 20.571 18.7031 22.6823 18.288C24.0089 17.9911 25.1541 17.1005 25.3968 15.7344C25.6371 14.25 25.9387 12.1116 26 9.5C25.8775 6.82812 25.5759 4.75 25.2742 3.26562ZM9.65162 13.6562V5.34375L17.0105 9.5L9.65162 13.6562Z" fill="#CDD9E5"/>
</svg>
