<svg width="386" height="48" viewBox="0 0 386 48" fill="none" xmlns="http://www.w3.org/2000/svg">
<path d="M0 8C0 3.58172 3.58172 0 8 0H378C382.418 0 386 3.58172 386 8V40C386 44.4183 382.418 48 378 48H7.99999C3.58171 48 0 44.4183 0 40V8Z" fill="#0D67FE"/>
<path fill-rule="evenodd" clip-rule="evenodd" d="M105 14.3447V21.9309L83 30.8965L105 14.3447Z" fill="#2FE9FF"/>
<path fill-rule="evenodd" clip-rule="evenodd" d="M100.875 14V27.1034C100.875 30.9123 97.797 34 94 34C90.203 34 87.125 30.9123 87.125 27.1034V21.5862L91.25 19.3103V27.1034C91.25 28.4365 92.3273 29.5172 93.6562 29.5172C94.9852 29.5172 96.0625 28.4365 96.0625 27.1034V16.6552L100.875 14Z" fill="white"/>
</svg>
