<svg width="491" height="373" viewBox="0 0 491 373" fill="none" xmlns="http://www.w3.org/2000/svg">
<path d="M0 62.1V310.3C0 344.5 27.9 372.4 62.1 372.4H262.7C296.9 372.4 324.8 344.5 324.8 310.3V270.1C324.8 263.3 319.3 257.8 312.5 257.8C305.7 257.8 300.2 263.3 300.2 270.1V310.3C300.2 331 283.3 347.9 262.6 347.9H62.1C41.4 347.9 24.5 331 24.5 310.3V62.1C24.5 41.4 41.4 24.5 62.1 24.5H262.7C283.4 24.5 300.3 41.4 300.3 62.1V102.3C300.3 109.1 305.8 114.6 312.6 114.6C319.4 114.6 324.9 109.1 324.9 102.3V62.1C324.9 27.9 297 0 262.8 0H62.1C27.9 0 0 27.8 0 62.1Z" fill="#C0C2C4"/>
<path d="M385.4 278.7C387.8 281.1 390.9 282.3 394.1 282.3C397.3 282.3 400.4 281.1 402.8 278.7L486.7 194.8C491.5 190 491.5 182.3 486.7 177.5L402.8 93.6C398 88.8 390.3 88.8 385.5 93.6C380.7 98.4 380.7 106.1 385.5 110.9L448.5 173.9H218.6C211.8 173.9 206.3 179.4 206.3 186.2C206.3 193 211.8 198.5 218.6 198.5H448.4L385.4 261.5C380.6 266.2 380.6 274 385.4 278.7Z" fill="#C0C2C4"/>
</svg>
