<svg width="24" height="24" viewBox="0 0 24 24" fill="none" xmlns="http://www.w3.org/2000/svg">
<ellipse cx="11.8252" cy="12.5" rx="11.6117" ry="11.5" fill="#6687B1"/>
<path d="M8.44568 15.7891C8.61755 15.5234 8.80505 15.4427 9.00818 15.5469C9.07068 15.5781 9.17224 15.6406 9.31287 15.7344C9.45349 15.8229 9.61495 15.9115 9.79724 16C9.98474 16.0833 10.1722 16.151 10.3597 16.2031C10.6983 16.2917 11.0316 16.3359 11.3597 16.3359C11.6879 16.3359 11.9743 16.3047 12.2191 16.2422C12.4639 16.1797 12.6853 16.0807 12.8832 15.9453C13.3311 15.638 13.5551 15.2083 13.5551 14.6562C13.5551 14.1458 13.3233 13.75 12.8597 13.4688C12.4222 13.2083 11.8519 13.0781 11.1488 13.0781C10.8311 13.0781 10.5993 13.0911 10.4535 13.1172C10.2712 13.1484 10.1514 13.1641 10.0941 13.1641C10.0368 13.1641 9.97953 13.1276 9.92224 13.0547C9.86495 12.9818 9.82068 12.8958 9.78943 12.7969C9.73214 12.6146 9.70349 12.4531 9.70349 12.3125C9.70349 12.1667 9.72432 12.0495 9.76599 11.9609C9.81287 11.8672 9.90922 11.8047 10.0551 11.7734C11.5707 11.4349 12.5264 10.9375 12.9222 10.2812C13.0733 10.0365 13.1488 9.78125 13.1488 9.51562C13.1488 9.25 13.1019 9.03646 13.0082 8.875C12.9196 8.70833 12.7972 8.57031 12.641 8.46094C12.3285 8.23698 11.9457 8.125 11.4926 8.125C11.1332 8.125 10.8311 8.19271 10.5863 8.32812C10.1332 8.57812 9.86755 8.8776 9.78943 9.22656C9.72693 9.47135 9.56547 9.59375 9.30505 9.59375C9.04985 9.59375 8.85193 9.57292 8.7113 9.53125C8.57068 9.48438 8.4613 9.42708 8.38318 9.35938C8.25818 9.24479 8.19568 9.06771 8.19568 8.82812C8.19568 8.58333 8.24516 8.34896 8.34412 8.125C8.44828 7.89583 8.5863 7.69271 8.75818 7.51562C8.93526 7.33333 9.13839 7.17448 9.36755 7.03906C9.59672 6.90365 9.83891 6.79167 10.0941 6.70312C10.5993 6.52083 11.0915 6.42969 11.5707 6.42969C12.0551 6.42969 12.5004 6.48698 12.9066 6.60156C13.3181 6.71615 13.6827 6.89062 14.0004 7.125C14.7087 7.64583 15.0629 8.36719 15.0629 9.28906C15.0629 10.0547 14.766 10.7083 14.1722 11.25C13.7608 11.6198 13.2452 11.9089 12.6254 12.1172C13.4535 12.1172 14.1358 12.3672 14.6722 12.8672C15.1879 13.3516 15.4457 13.9036 15.4457 14.5234C15.4457 15.138 15.3337 15.6562 15.1097 16.0781C14.891 16.5052 14.6045 16.8646 14.2504 17.1562C13.516 17.7552 12.6722 18.0547 11.7191 18.0547C10.2816 18.0547 9.17485 17.7344 8.3988 17.0938C8.1488 16.8958 8.0238 16.7344 8.0238 16.6094C8.0238 16.4896 8.05245 16.3854 8.10974 16.2969L8.44568 15.7891Z" fill="white"/>
</svg>
