<svg width="24" height="23" viewBox="0 0 24 23" fill="none" xmlns="http://www.w3.org/2000/svg">
<ellipse cx="11.8252" cy="11.5" rx="11.6117" ry="11.5" fill="#6687B1"/>
<path d="M8.3988 14.9844C8.3988 14.724 8.41703 14.5599 8.45349 14.4922C8.50037 14.3828 8.62537 14.2786 8.82849 14.1797C9.03162 14.0755 9.29203 13.9297 9.60974 13.7422C9.93266 13.5495 10.2634 13.3359 10.6019 13.1016C10.9405 12.862 11.2738 12.6016 11.6019 12.3203C11.9301 12.0391 12.2243 11.7448 12.4847 11.4375C13.0629 10.7656 13.3519 10.1302 13.3519 9.53125C13.3519 9.02083 13.167 8.63542 12.7972 8.375C12.5004 8.17188 12.2035 8.07031 11.9066 8.07031C11.6149 8.07031 11.3754 8.09375 11.1879 8.14062C11.0004 8.1875 10.8233 8.25781 10.6566 8.35156C10.2816 8.5599 10.0238 8.84635 9.88318 9.21094C9.76339 9.53906 9.56807 9.70312 9.29724 9.70312C9.23995 9.70312 9.18005 9.69792 9.11755 9.6875C9.05505 9.67708 8.94568 9.65885 8.78943 9.63281C8.45089 9.57552 8.28162 9.38802 8.28162 9.07031C8.28162 8.7526 8.3311 8.47656 8.43005 8.24219C8.53422 8.0026 8.67485 7.78906 8.85193 7.60156C9.02901 7.40885 9.23474 7.23958 9.46912 7.09375C9.70349 6.94792 9.95089 6.82552 10.2113 6.72656C10.7321 6.52865 11.1905 6.42969 11.5863 6.42969C11.9873 6.42969 12.3207 6.45052 12.5863 6.49219C12.8519 6.52865 13.1123 6.59375 13.3676 6.6875C13.6228 6.77604 13.8676 6.89583 14.1019 7.04688C14.3363 7.19271 14.542 7.375 14.7191 7.59375C15.1045 8.06771 15.2972 8.65885 15.2972 9.36719C15.2972 10.4557 14.8077 11.4583 13.8285 12.375C13.3181 12.8646 12.8285 13.2552 12.3597 13.5469L10.9613 14.4062L15.141 14.3125C15.3441 14.3073 15.4717 14.3568 15.5238 14.4609C15.5811 14.5599 15.6097 14.6901 15.6097 14.8516V15.5469C15.6097 15.724 15.5629 15.8438 15.4691 15.9062C15.3806 15.9635 15.2478 15.9922 15.0707 15.9922H8.93787C8.7712 15.9922 8.63839 15.9583 8.53943 15.8906C8.44568 15.8229 8.3988 15.6979 8.3988 15.5156V14.9844Z" fill="white"/>
</svg>
