<svg width="23" height="23" viewBox="0 0 23 23" fill="none" xmlns="http://www.w3.org/2000/svg">
<path d="M21.4667 5.31831C20.733 5.64415 19.9449 5.86341 19.1176 5.96231C19.9625 5.45631 20.6103 4.65515 20.9155 3.69988C20.1258 4.16831 19.2503 4.50871 18.318 4.69271C17.572 3.89768 16.5094 3.40088 15.3334 3.40088C13.0748 3.40088 11.244 5.23245 11.244 7.49028C11.244 7.81075 11.2808 8.12355 11.3498 8.42178C7.95113 8.25158 4.93813 6.62318 2.92026 4.14838C2.56913 4.75251 2.36749 5.45478 2.36749 6.20535C2.36749 7.62368 3.08893 8.87565 4.18603 9.60858C3.51596 9.58711 2.88499 9.40311 2.33376 9.09721C2.33376 9.11485 2.33376 9.13095 2.33376 9.14858C2.33376 11.1304 3.74289 12.7833 5.61433 13.1582C5.27163 13.2518 4.90976 13.3016 4.53639 13.3016C4.27343 13.3016 4.01659 13.2755 3.76743 13.2288C4.28799 14.8533 5.79833 16.0363 7.58773 16.0693C6.18856 17.1664 4.42523 17.8203 2.50856 17.8203C2.17889 17.8203 1.85306 17.8012 1.53259 17.7628C3.34269 18.9228 5.49166 19.5998 7.80163 19.5998C15.3242 19.5998 19.4366 13.3683 19.4366 7.96408C19.4366 7.78698 19.4327 7.61065 19.4251 7.43508C20.2247 6.85778 20.9185 6.13788 21.4667 5.31831Z" fill="#CDD9E6"/>
</svg>
