<svg width="48" height="12" viewBox="0 0 48 12" fill="none" xmlns="http://www.w3.org/2000/svg">
<path d="M2.816 11L0.112 0.967999H2.192L3.552 6.616C3.584 6.76533 3.62133 6.94667 3.664 7.16C3.70667 7.37333 3.81333 7.98667 3.984 9C4.15467 8.008 4.26133 7.4 4.304 7.176C4.34667 6.952 4.384 6.77067 4.416 6.632L5.84 0.967999H7.856L9.296 6.616C9.33867 6.76533 9.38133 6.952 9.424 7.176C9.46667 7.38933 9.57333 7.992 9.744 8.984C9.86133 8.32267 9.952 7.8 10.016 7.416C10.0907 7.02133 10.144 6.76 10.176 6.632L11.504 0.967999H13.52L10.816 11H8.624L7.488 6.792C7.38133 6.35467 7.27467 5.88533 7.168 5.384C7.06133 4.872 6.944 4.26933 6.816 3.576C6.72 4.09867 6.61333 4.632 6.496 5.176C6.38933 5.70933 6.272 6.248 6.144 6.792L5.024 11H2.816ZM23.6423 0.36V11H21.7863V0.36H23.6423ZM27.284 1.976H25.316V0.36H27.284V1.976ZM27.236 11H25.38V3.096H27.236V11ZM30.8298 11H28.9738V3.096H30.5738L30.6538 3.896H30.7018C31.0751 3.56533 31.4751 3.32533 31.9018 3.176C32.3391 3.016 32.8511 2.936 33.4378 2.936C34.3124 2.936 34.9791 3.15467 35.4378 3.592C35.8964 4.02933 36.1258 4.67467 36.1258 5.528V11H34.2698V5.768C34.2698 5.384 34.1418 5.096 33.8858 4.904C33.6404 4.70133 33.2724 4.6 32.7818 4.6C32.4298 4.6 32.0884 4.648 31.7578 4.744C31.4271 4.82933 31.1178 4.96267 30.8298 5.144V11ZM39.6891 7.752V11H37.8331V0.36H39.6891V6.248H40.3611L42.7291 3.096H44.9371L41.9131 6.92L45.0971 11H42.8091L40.3771 7.752H39.6891Z" fill="black"/>
<path d="M19.945 3.384C19.945 4.00267 19.8063 4.50933 19.529 4.904C19.2623 5.288 18.8677 5.55467 18.345 5.704V5.736C19.0063 5.78933 19.5023 6.01867 19.833 6.424C20.1743 6.82933 20.345 7.40533 20.345 8.152C20.345 9.12267 20.0517 9.864 19.465 10.376C18.889 10.888 18.0517 11.144 16.953 11.144C16.3237 11.144 15.7583 11.112 15.257 11.048C14.7663 10.9947 14.3823 10.9147 14.105 10.808V9.144C14.4997 9.22933 14.889 9.29333 15.273 9.336C15.6677 9.368 16.121 9.384 16.633 9.384C17.305 9.384 17.7903 9.27733 18.089 9.064C18.3983 8.84 18.553 8.48267 18.553 7.992C18.553 7.53333 18.4197 7.19733 18.153 6.984C17.8863 6.77067 17.4703 6.664 16.905 6.664H15.225V5.048H16.553C17.0757 5.048 17.4703 4.94133 17.737 4.728C18.0143 4.504 18.153 4.17333 18.153 3.736C18.153 3.288 18.041 2.97333 17.817 2.792C17.593 2.6 17.225 2.504 16.713 2.504C16.361 2.504 15.9077 2.54133 15.353 2.616C14.809 2.68 14.4783 2.73333 14.361 2.776V1.192C14.6917 1.08533 15.1237 0.994666 15.657 0.919999C16.201 0.845333 16.7343 0.808 17.257 0.808C18.1423 0.808 18.809 1.02667 19.257 1.464C19.7157 1.90133 19.945 2.54133 19.945 3.384Z" fill="#102D52"/>
<path d="M47.4629 11H45.6549V9.224H47.4629V11Z" fill="#FF0000"/>
</svg>
