<svg width="26" height="26" viewBox="0 0 26 26" fill="none" xmlns="http://www.w3.org/2000/svg">
<path d="M13 2.59998C7.25658 2.59998 2.59998 7.25658 2.59998 13C2.59998 14.951 3.148 16.77 4.08279 18.3303L2.69307 23.4L7.87107 22.0407C9.38542 22.9017 11.1336 23.4 13 23.4C18.7434 23.4 23.4 18.7434 23.4 13C23.4 7.25658 18.7434 2.59998 13 2.59998ZM9.44021 8.14867C9.60921 8.14867 9.78286 8.14764 9.93279 8.15544C10.1183 8.15978 10.3201 8.17336 10.5134 8.60063C10.7431 9.10849 11.2431 10.3826 11.3073 10.5117C11.3714 10.6408 11.4168 10.793 11.3276 10.962C11.2426 11.1353 11.1985 11.2402 11.0737 11.3936C10.9445 11.5427 10.803 11.7278 10.686 11.8405C10.5569 11.9696 10.4236 12.1112 10.5726 12.3686C10.7217 12.626 11.2394 13.4698 12.0047 14.151C12.9883 15.0298 13.8183 15.2999 14.0765 15.429C14.3348 15.5581 14.4844 15.538 14.6334 15.3647C14.7868 15.1957 15.2777 14.6158 15.451 14.3575C15.62 14.0993 15.7925 14.1439 16.0265 14.2289C16.264 14.3138 17.5304 14.9376 17.7886 15.0668C18.0469 15.1959 18.2162 15.2598 18.2812 15.3647C18.348 15.473 18.348 15.9887 18.134 16.5902C17.9199 17.1908 16.8687 17.7716 16.3972 17.8123C15.9214 17.8565 15.4774 18.0262 13.3047 17.1708C10.6839 16.1386 9.03106 13.4543 8.90193 13.281C8.7728 13.112 7.85245 11.8854 7.85245 10.62C7.85245 9.35036 8.51815 8.72855 8.75128 8.47029C8.98874 8.21202 9.26688 8.14867 9.44021 8.14867Z" fill="#CDD9E5"/>
</svg>
